<svg xmlns="http://www.w3.org/2000/svg" width="70.594" height="74.969" viewBox="0 0 70.594 74.969">
  <defs>
    <style>
      .cls-1 {
        fill: #004b1a;
        fill-rule: evenodd;
      }
    </style>
  </defs>
  <path class="cls-1" d="M303.787,603.5c-1.828-.13-2.063-2.545-2.037-4.1,0.076-4.544,4.038-7.759,3.975-12.4a7.358,7.358,0,0,0-2.035-4.979c0.991,5.874-3.65,10.747-4.073,16.6-0.307,4.241,1.224,8.286,3.781,10.056,0.643,0.444,1.566.216,1.746,1.465-1.038.616-2.153-.28-2.812-0.782-2.757-2.1-4.526-6.209-4.169-11.227A23.205,23.205,0,0,1,300.1,591.2c0.847-2.15,2.09-4.288,2.327-6.542a6,6,0,0,0-.1-1.856c-0.25-1.032-2.843-3.489-.873-3.807a0.316,0.316,0,0,1,.1,0,5.548,5.548,0,0,1,3.782,2.539,8.96,8.96,0,0,1,1.842,6.443c-0.367,5.162-5.031,8.159-3.685,13.181C303.725,602.013,304.606,602.748,303.787,603.5Zm11.926-21.381a0.292,0.292,0,0,1,.194-0.1c2.387,0.1,4.905,2.537,6.4,4.49,3.318,4.338,3.358,12.091.872,17.184a29.349,29.349,0,0,1-1.939,3.515c-0.644.97-1.8,2.714-2.618,2.734-1.6.04-2.285-2.491-2.424-4.1-0.479-5.528,3.707-8.868,4.169-13.863a8.992,8.992,0,0,0-3.1-7.226C316.675,584.235,313.867,582.873,315.713,582.118Zm2.327,25.873a42.514,42.514,0,0,1,1.648-6.053c0.628-1.917,1.724-3.756,2.037-5.663,0.076-.463-0.345-1.627.582-1.562,0.457,2.713-.894,4.765-1.649,7.029a27.946,27.946,0,0,0-1.455,5.663c2.234-3.164,4.614-7.558,4.267-13.179a11.006,11.006,0,0,0-2.327-6.542C324.518,595.449,315.406,600.763,318.04,607.991ZM310.671,587.1c0.734-.5,1.974.473,2.618,0.976a7.609,7.609,0,0,1,3.1,7.226,31.245,31.245,0,0,1-1.648,5.368c-0.631,1.818-1.019,4.256-1.648,5.273-1.108,1.792-4.7,2.681-5.915.585a5.717,5.717,0,0,1-.581-2.342c-0.287-5.667,4.546-8.537,4.363-13.668C310.915,589.215,310.256,588.36,310.671,587.1Zm-2.521,17.476a2.411,2.411,0,0,0,.775,1.561c-0.783-3.978,1.558-6.517,2.619-9.373,0.256-.688.382-1.887,1.357-1.951,0.2,1.522-.77,2.925-1.454,4.295-1.08,2.163-2.642,4.526-1.552,7.42,2.746-.343,2.575-3.348,3.491-6.248a27.984,27.984,0,0,0,1.551-5.565,5.785,5.785,0,0,0-2.618-5.371C313.34,595.682,307.4,599.066,308.15,604.574Zm31.221-12.009a3.8,3.8,0,0,1,3.977,1.952c1.141,3.446-3.558,6.037-5.624,3.125a6.678,6.678,0,0,1-.777-2.246A2.833,2.833,0,0,1,339.371,592.565Zm1.455,5.077a2.192,2.192,0,0,0,1.261-2.441,1.954,1.954,0,0,0-2.423-1.171C337.372,594.635,338.472,598.264,340.826,597.642Zm-33.937-4.59c0.021,1.444-.83,3.156-0.969,4.98-0.072.937,0.318,2.312-.582,2.539-0.5-.391-0.328-1.5-0.291-2.05a25.2,25.2,0,0,1,1.163-5.174,2.589,2.589,0,0,0,.194-0.295h0.485Zm-1.939,24.312c-0.864,1.18-2.351,1.908-3.588,2.832-0.566.422-1.22,0.928-1.842,1.366-0.549.387-1.224,1.3-2.036,0.782,0.154-.75.99-1.076,1.551-1.465,1.755-1.216,3.619-2.585,5.43-3.808A0.621,0.621,0,0,1,304.95,617.364Zm2.521,0.2a22.647,22.647,0,0,1-3.588,2.928c-0.6.468-1.247,0.985-1.842,1.465-0.567.459-1.154,1.164-1.939,1.074-0.274-.826.775-1.282,1.26-1.66,1.728-1.345,3.723-2.828,5.527-4.1A0.464,0.464,0,0,1,307.471,617.56Zm-6.206.39a2.663,2.663,0,0,1-1.357,1.367c-0.5.361-1.076,0.705-1.552,1.074-0.908.705-1.929,2-3.2,1.66,0.017-.694.81-0.864,1.26-1.172,1.423-.973,2.9-2.263,4.461-3.222A0.394,0.394,0,0,1,301.265,617.95Zm-5.818.585a6.116,6.116,0,0,1-2.036,1.661c-0.668.475-1.387,1.377-2.327,1.171,0.407-1.439,2.678-2.047,3.782-3.124A0.461,0.461,0,0,1,295.447,618.535Zm2.619,0a6.256,6.256,0,0,1-2.327,1.856c-0.775.52-1.57,1.518-2.619,1.367,0.227-1,1.289-1.451,2.037-1.953a18.923,18.923,0,0,0,2.327-1.562A0.462,0.462,0,0,1,298.066,618.535Zm3.1,7.811c-0.241.854-1.5,0.42-2.133,0.391a52.367,52.367,0,0,1-8.048-.878,0.537,0.537,0,0,1,.291-0.683c2.738,0.214,5.59.7,8.339,0.878A1.853,1.853,0,0,1,301.168,626.346Zm-3.49,1.562c-0.523.68-1.973,0.195-3.1,0.1-1.094-.095-2.554-0.015-2.909-0.782,0.543-.621,1.9-0.117,3.006,0C295.8,627.345,297.185,627.21,297.678,627.908Zm-2.037,1.661c-1.164.447-3-.013-4.072-0.293a0.467,0.467,0,0,1,.291-0.586C292.8,628.925,295.163,628.548,295.641,629.569Zm-0.484,1.463c-0.736.579-2.558,0.066-3.394-.194a0.636,0.636,0,0,1,.1-0.488C292.812,630.343,294.744,630.172,295.157,631.032Zm-0.1,1.271c-0.434.918-2.472,0.115-3.394,0C291.793,631,294.4,631.985,295.06,632.3Zm0.1,2.051c-0.722.45-2.916,0.151-3.394-.588a0.266,0.266,0,0,1,.194-0.292C292.8,633.606,294.753,633.451,295.157,634.354Zm-0.1,1.365c-0.607.823-2.5,0.035-3.3-.2v-0.487C292.745,635,294.441,635.067,295.06,635.719Zm0,1.466c-0.369.8-2.818,0.412-3.006-.49A4.189,4.189,0,0,1,295.06,637.185Zm0.194,1.268c-0.348,1.039-2.3.153-3.007,0C292.444,637.265,294.648,638.2,295.254,638.453Zm0,1.172c-0.013.174,0.119,0.206,0.1,0.39-0.476.772-2.252,0.169-2.909-.1C292.629,638.656,294.244,639.892,295.254,639.625Zm0.485,1.561c-0.314,1.1-2.52.328-3.3,0.1C292.707,640.125,294.907,641.076,295.739,641.186Zm0.387,1.758a3.73,3.73,0,0,1-3.49-.292C293.02,641.881,295.609,642.312,296.126,642.944Zm0.388,1.367c-0.688.718-3.131,0.192-3.878-.293-0.071-.266.192-0.2,0.193-0.39C293.86,643.672,295.843,643.582,296.514,644.311Zm0.194,1.465c-0.463.758-2.949,0.188-3.588-.293a0.646,0.646,0,0,1,.1-0.391C294.246,645.072,296,645.151,296.708,645.776Zm0.388,1.562c-0.686.872-3.211,0.169-3.782-.293-0.014-.243-0.018-0.474.194-0.488C294.331,646.809,296.343,646.691,297.1,647.338ZM297.387,649c0,0.712-.958.517-1.455,0.49a4.5,4.5,0,0,1-2.618-.782,0.429,0.429,0,0,1,.194-0.39,0.611,0.611,0,0,1,.194-0.1C294.707,648.7,296.455,648.439,297.387,649Zm18.52-35.538c7.933-.546,16.313,1.066,21.429,4.491,0.676,0.452,1.719,1.077,1.842,1.563,0.2,0.8-.43,1.628.1,2.245a18.916,18.916,0,0,1,6.011-.781c1.543,0.143,3.655.894,3.686,2.343s-2.268,2.015-3.589,2.343a30.264,30.264,0,0,1-5.235.683,52.232,52.232,0,0,1-.194,14.549c-0.344,2.242-.685,4.936-1.552,6.541-0.71,1.314-2.909,2.316-4.557,3.025a48.5,48.5,0,0,1-19.1,3.517,99.97,99.97,0,0,1-13.768-1.27c-4.49-.612-8.683-1.162-12.024-3.027a51.486,51.486,0,0,1-2.812-20.308c-3.243.651-8.141,0.8-7.757-2.733,0.323-2.974,4.886-2.371,8.339-2.442,0.725-1.9-.057-3.6,1.261-5.076,1.615-1.814,4.893-3.008,7.95-3.808a47.572,47.572,0,0,1,10.375-1.367c0.072-2.694,1.206-4.541,3.491-4.881A5.261,5.261,0,0,1,315.907,613.459Zm-1.551.488c0.246-2.586-3.822-4.435-5.624-2.636,0.415-.106,1.142-0.575,1.26.1-0.759.863-2.3,0.938-2.424,2.442,0.709-.27,1.19-1.6,2.424-1.661,0,0.2.265,0.125,0.194,0.391-0.616.791-2.557,1.658-1.842,2.832,0.449-.737,1.208-2.146,2.23-1.661-0.294,1.072-1.534,1.19-1.649,2.442,0.841,0.153,1.123-2.017,2.231-1.269,0,0.922-1.282,1.037-1.067,1.854,0.867,0.1.881-1.347,1.939-1.366,0.051,0.145.144,0.246,0.194,0.391-0.025.453-1.056,0.854-.678,1.074A3.4,3.4,0,0,0,314.356,613.947Zm1.357,0.878a4.791,4.791,0,0,1-6.884,2.93c-1.044-.57-1.365-1.8-2.327-2.148-1.305-.468-4.017.08-5.527,0.292a28.387,28.387,0,0,0-9.5,2.735c-1.08.546-3.294,1.738-2.909,3.221,0.287,1.1,3.589,1.3,5.333,1.465,15.523,1.438,31.087-.673,43.536-3.32-4.681-3.876-12.544-5.4-21.428-5.37A0.69,0.69,0,0,0,315.713,614.825Zm22.2,6.346h-0.193a132.177,132.177,0,0,1-37.331,4c-4.236-.2-8.862-0.169-12.315-1.368-1.364,8.493-.306,18.591,2.327,24.9,5.619,2.085,13.305,3.254,20.944,3.612,8.851,0.415,17.5-.718,23.465-3.71a2.755,2.755,0,0,0,1.552-1.073,20.507,20.507,0,0,1-2.327.683c-0.754.177-1.972,0.653-2.424-.1,1.522-1.1,4.992-.511,5.721-2.441-0.815.017-2.315,0.9-2.812,0,0.681-.681,2.268-0.45,3.1-0.976,0-.3.388-0.708,0.1-0.976-0.537.126-1.813,0.744-2.037,0,0.34-.765,1.742-0.459,2.424-0.879a3.565,3.565,0,0,1,.1-0.782c-0.568-.029-1.436.5-1.842,0,0.1-.873,1.363-0.579,2.036-0.879a1.858,1.858,0,0,1,.1-0.781c-0.579-.007-1.469.645-1.646-0.1,0.2-.932,2.152-0.11,1.841-1.562-0.439.046-1.209,0.581-1.552,0.1-0.009-.888,1.18-0.57,1.649-0.977a2.836,2.836,0,0,0,.1-1.073c-0.535-.052-1.269.523-1.357-0.2,0.052-.729,1.272-0.28,1.454-0.879v-0.586c-0.473.106-1.271,0.6-1.454-.1,0.116-.73,1.388-0.294,1.551-0.976-0.333-.266-1.482.541-1.551-0.294,0.158-.589,1.134-0.354,1.551-0.683V632.3c-0.386.017-1.339,0.526-1.455-.1,0.019-.7.937-0.488,1.455-0.683v-0.978c-0.546-.011-1.6.585-1.745-0.194,0.3-.741,2-0.066,1.648-1.464-0.637.019-1.612,0.779-2.037,0.1,0.243-.734,1.338-0.606,2.037-0.879-0.217-.041-0.04-0.48-0.1-0.682-0.93-.02-2.2,1-2.715.195,0.454-.747,1.695-0.7,2.618-0.976v-0.879c-1.088.027-2.668,1.254-3.394,0.39,0.616-.975,2.623-0.548,3.3-1.464-0.144-.018-0.089-0.235-0.1-0.39-0.738.14-1.58,0.393-2.425,0.585-0.749.17-1.756,0.684-2.327,0.1,0.3-.792,1.573-0.64,2.521-0.879,0.828-.21,2.242-0.371,1.938-1.367-1.7.388-3.794,0.957-5.622,1.268-0.492.085-1.546,0.58-1.649-.291,2.111-.9,5.133-0.884,6.981-2.051A1.745,1.745,0,0,1,337.917,621.171Zm1.747,1.759c-0.056.641,0.224,0.945,0.192,1.561,0.663,0.1.778-1.157,1.552-1.268a0.394,0.394,0,0,1,.291.39,4.387,4.387,0,0,1-.776,1.172c1.284-.009.987-1.612,2.231-1.661a0.467,0.467,0,0,0,.1.294,2.543,2.543,0,0,1-.679,1.171c1.382,0.122,1.367-1.163,2.231-1.562a1,1,0,0,1,.291.293c0.156,0.52-.553.675-0.291,0.977,0.632-.146.759-0.8,1.358-0.977,0.417-.129.12,0.465,0.484,0.391a1.949,1.949,0,0,0,.776-0.488C345.739,621.75,341.829,622.23,339.664,622.93Zm-59.73,3.514a1.416,1.416,0,0,0,0,1.074c0.506-.008.959-1.338,1.745-1.074a0.63,0.63,0,0,0,.1.2c0.119,0.816-1.312,1.067-.872,1.561,0.7-.009,1.059-1.729,2.133-1.367a0.6,0.6,0,0,0,.1.2c-0.136.563-1.231,1.152-.97,1.466,1.287-.137,1.325-1.53,2.617-1.661a0.605,0.605,0,0,0,.1.2c0.137,0.744-1.159,1.023-.776,1.368,0.7-.105,1.488-0.129,2.133-0.294,0.075-.8.178-1.578,0.291-2.342C284.135,625.762,281.46,625.381,279.934,626.444Z" transform="translate(-278.375 -579)"/>
</svg>
