<svg xmlns="http://www.w3.org/2000/svg" width="70.688" height="76.375" viewBox="0 0 70.688 76.375">
  <defs>
    <style>
      .cls-1 {
        fill: #004b1a;
        fill-rule: evenodd;
      }
    </style>
  </defs>
  <path class="cls-1" d="M425.488,610.706c0.606-2.022,2.892-.667,2.4.711C427.326,613,424.927,612.577,425.488,610.706Zm1.123,0.763c0.262-.142.473-0.672,0.048-0.781A0.505,0.505,0,0,0,426.611,611.469Zm45.871-25.327a5.734,5.734,0,0,1,.638,2.387c0.122,0.734.488,1.9-.321,2.336a5.546,5.546,0,0,1-.285-2.2c-0.1-.732-0.283-1.411-0.427-2.1A0.6,0.6,0,0,1,472.482,586.142Zm1.822,1.483c0.587,0.572.788,2.612-.193,3.3-0.415-.3-0.061-0.771-0.017-1.171a5.017,5.017,0,0,0-.149-1.776C474.042,587.789,474.12,587.54,474.3,587.625Zm1.62,0.842a3.3,3.3,0,0,1-.259,2.9c-0.122-.076-0.192.009-0.319-0.077C475.51,590.449,475.156,588.926,475.924,588.467Zm-6.042,21.262c0.338,0.548-.214,1.444-0.565,2.119a10.475,10.475,0,0,1-2.215,3.23c-0.664-.437.36-1.319,0.922-2.292,0.318-.549.631-1.207,0.914-1.76S469.386,609.717,469.882,609.729Zm11.287,4.077c-0.6,1.692-.733,3.826-1.962,5.326a0.582,0.582,0,0,1-.7-0.365c0.281,1.436,1.073,2.906.095,5.145-0.288.664-.98,2.213-1.555,1.962-0.682-.3.143-1.286,0.346-1.7,1.341-2.714.113-4.105-.611-6.394-0.188-.6-0.263-1.242-0.4-1.815-0.145-.615-0.58-1.292-0.184-1.883,0.069,0.033.1-.058,0.143-0.1,1.313,0.07,1.071,1.558,1.276,2.362a0.818,0.818,0,0,1,.679-0.274,12.981,12.981,0,0,1,.724,1.36,44.659,44.659,0,0,0,1.362-5.549c0.205-1.733-.047-3.569.933-5.236a1.581,1.581,0,0,1,1.131.231,31.048,31.048,0,0,0-.122,5.568c0.769-2.919,1.836-6.494,2.816-9.889,0.193-.67.5-2.932,1.457-2.461,0.728,0.359-.071,2.013-0.293,2.8-0.3,1.075-.6,2.063-0.826,2.967,0.556-.207,1.279-2.874,2.133-2.557s-0.636,2.05-1.327,3.244c-0.54.933-.829,1.667-1.278,2.285a7.373,7.373,0,0,0-.576.6c-0.795,1.346-.747,3.393-1.457,4.7,1.214-1.928,2.243-4.443,3.738-5.476,0.869,0.883-.671,2.134-1.181,2.962-1.486,2.412-2.357,5.326-3.347,7.645a4.3,4.3,0,0,0,1.506-1c0.4-.335,1.016-1.237,1.506-1,1.184,0.561-.843,1.923-1.528,2.424a11.8,11.8,0,0,1-1.9,1.248c-1.295,1.52-1.286-.546-1.182-1.686a50.407,50.407,0,0,0,.612-5.134l0.074-.142A0.516,0.516,0,0,0,481.169,613.806Zm12.274-29.644c0.3-1.087.935-1.358,1.509-1.181,1.96,0.6.687,3.661-.864,3.036A1.4,1.4,0,0,1,493.443,584.162ZM494.707,585c0.258-.414.407-0.8-0.02-0.994C494.276,584.229,494.394,585,494.707,585Zm-2.158,17.917a4.846,4.846,0,0,1-1.269,1.754,21.348,21.348,0,0,1-1.484,1.822,0.556,0.556,0,0,1-.42-0.219,0.485,0.485,0,0,1,0-.178c0.357-.519.978-1.4,1.484-2C491.327,603.542,491.9,602.674,492.549,602.915Zm-26.336-21.907c1.334-.628,3.19-1.6,5.081-0.488,1.068,0.626,1.415,1.851,2.334,2.732a14.24,14.24,0,0,0,2.6,1.53,8.773,8.773,0,0,1,3.683,4.953c3.557-.612,4.512,3.11,6.591,5.033,1.249,1.156,3.093,1.816,4.781,2.842a10.4,10.4,0,0,1,4.008,4.5,7.244,7.244,0,0,1-.4,7.3c-1.284,2.071-3.081,3.794-3.817,5.973-0.694,2.046-.353,3.967-0.518,5.986a33.705,33.705,0,0,1-4.248,12.989,47.3,47.3,0,0,1-8.254,10.727,102.05,102.05,0,0,1-9,8.2c-2.025.426-4.1,1.507-6.36,0.717a15.037,15.037,0,0,1-3.235-1.859,27.012,27.012,0,0,1-5.344-5.369c-4.376-5.58-5.436-12.645-4.519-19.688-3.177-1.489-4.366-4.106-3.9-6.942-1.376-1.62-1.975-3.513-3.726-4.528-1.458-.846-3.463-0.676-5.045-1.817-2.64-1.905-1.1-5.567-.577-8.523a11.686,11.686,0,0,0,.123-3.332c-0.183-1.67-.794-3.366.013-5.357,1.161-2.859,2.84-3.072,4.886-3.9,0.873-.352,2.244-0.84,2.541-1.45,0.248-.51-0.158-1.508-0.181-2.061a4.339,4.339,0,0,1,.353-2.229,17.893,17.893,0,0,1,1.334-1.363c0.667-1.047.559-2.415,0.975-3.426a6.34,6.34,0,0,1,3.743-3.418c0.962-.285,2.037-0.221,2.987-0.415a7.267,7.267,0,0,1,2.949-.344c0.474,0.115,1.206.752,1.691,0.878s1.954-.475,2.737-0.455A8.19,8.19,0,0,1,466.213,581.008ZM437.8,596.636c-0.875,1.841-.268,3.664-0.08,5.143a12.675,12.675,0,0,1-.009,2.945c-0.231,2.028-1.334,4.616-1.092,6.225,0.422,2.8,4.07,2.239,6.467,3.9,1.6,1.105,1.932,2.487,3.168,3.881,0.631-1.179-.2-1.941-0.735-2.885-1.485-2.641-1.165-5.685.569-9.179-0.688-.5-3.09-0.807-2.92-1.606,0.148-.7.833-0.2,1.386-0.085,0.112-.208-0.5-0.827.088-1.206,1.11,0.082.777,1.722,1.921,1.982a5.923,5.923,0,0,0,.413-1.484,24.388,24.388,0,0,1-2.239-2.057c-0.658-.563-2.617-1.424-2.132-2.091,0.384-.524.916,0.2,1.45,0.306-0.268-.895-1.491-1.488-1.059-2.605,1.593,0.409,1.735,2.582,2.822,3.343a6.07,6.07,0,0,1-.682-1.785c-0.3-1.535.637-3.184,0.393-4.711a7.571,7.571,0,0,0-1.166-2.573C442.385,594.248,439.4,593.273,437.8,596.636Zm18.645,12.28c-2.284.471-.873-2.764-0.571-4.229-0.909-.858-0.319-1.946-0.163-3.3,0.29-2.5-.131-5.178.935-7.647,0.291-.675.674-1.4,0.99-2.078,0.3-.635.521-1.751,1.377-1.788,0.543,0.878-.534,2.288-0.974,3.248-1.395,3.06-.959,5.943-1.055,8.569a13.742,13.742,0,0,1,1.194-1.435c0.217-.751,1.09-3.983,1.83-3.7,0.78,0.3-.337,1.587-0.176,2.232,0.68-.459,1.378-3.266,2.348-2.8,1.181,0.565-1.825,3.887-2.123,4.26-1.024,1.288-2.561,2.711-3.151,4.173a32.49,32.49,0,0,0-.692,3.394c0.972-.276,1.561-1.381,2.418-2.587,0.5-.707,1.6-3.129,2.383-2.7s-0.647,2.152-1.109,2.82a30.467,30.467,0,0,0-1.955,2.56,18.662,18.662,0,0,0,2.583-1.876c0.415-.447.614-1.08,1.182-0.727a0.942,0.942,0,0,1,.161,1.068c-0.41.964-1.9,1.614-2.943,2.224-1.751,1.023-3.621,2.635-3.837,4.978,0.855-.059,2.844-4.252,3.64-3.739a0.647,0.647,0,0,1,.057.923,1.565,1.565,0,0,1,.776.225c0.168,1.348-1.023,2.441-1.931,3.376-1.824,1.874-4.138,4.322-3.693,7.109,0.487-.437.985-0.733,1.581-1.324,0.463-.462,1.012-1.487,1.647-1.11,0.711,0.42-.316,2.641-0.94,3.533-0.4.573-1.24,1.088-1.767,1.853a4.468,4.468,0,0,0-.912,3.817c0.818-.166,1.406-2.77,2.235-2.236,0.441,0.285,0,.821.014,1.348a9.5,9.5,0,0,0-1.5,5.121c-0.245,4.222,1.827,8.026,4.011,11.2-0.251-.936.166-2.628-0.046-3.867-0.192-1.13-1.014-2-1.158-3.1-0.209-1.61.933-3.513,1.967-5.5,1.232-2.371.514-4.036,0.482-5.918-0.038-2.218,1.411-4.651,2.524-7.269,1.219-2.86-.626-4.855.69-7.864,0.306-.7.8-1.318,1.061-2.041a10.938,10.938,0,0,0,.137-4.219,16.936,16.936,0,0,1-.041-4.223c0.184-1.555.576-3.013,0.6-4.424,0.068-3.911-1.7-6.753-3.887-10.064-1.225-1.853-1.835-4.673-4.239-5.778-1.235-.567-1.986-0.028-3.23.2-0.8.145-1.626,0.079-2.347,0.212a5.076,5.076,0,0,0-3.557,3.067c-0.365.985-.292,2.164-1.117,3.353a9.8,9.8,0,0,0-1.224,1.152,3.02,3.02,0,0,0,.34,3.126,3.273,3.273,0,0,1-.08.673c0.719,1.581,1.58,2.581,1.53,4.281-0.034,1.081-.576,2.179-0.478,3.327,0.193,2.3,2.805,4.1,1.665,6.943-0.4.992-.954,1.852-1.318,2.711a8.74,8.74,0,0,0-.551,5.7c0.465,1.412,1.858,2.584,1.713,3.929-0.118,1.1-.84,1.817-0.964,2.716a4.99,4.99,0,0,0,2.2,4.54c-0.567-4.677-.077-9.861-0.84-14.38-0.1-.6-0.483-1.39-0.04-1.988a2.5,2.5,0,0,1,.682,1.785c0.867,4.536.344,9.52,1.022,14.028,0.793-5.466,3.1-11.532,1.6-16.152a4.291,4.291,0,0,1-.535-2.066c1.11-.415.862,1.231,1.856,1.59,0.41-1.745-.289-3.057-1.17-4.63-0.228-.406-2.226-3.694-0.411-3.163,0.982,0.287,1.653,2.4,2.511,2.735,1.21-4.878,1.179-10.232-2.481-13.8-0.469-.457-1.463-0.922-1.04-1.613,0.6-.977,2.091.82,2.467,1.1-0.064-1.819-1.514-3.59-2.045-5.353-0.124-.408-0.516-1.652.487-1.625a7.6,7.6,0,0,1,.677,1.962c0.455,1.047,1.1,2.04,1.513,3.109,0.556,1.428.79,3.036,1.569,4.034a11.833,11.833,0,0,1,.568-2.3c0.224-.66.573-2.183,1.236-1.86,0.459,0.224.151,1.046-.024,1.6a21.356,21.356,0,0,0-1.145,5.125,1.361,1.361,0,0,1-.259.671c0.657,1.65.475,4.114,0.151,6.245-0.272,1.787-.08,4.342-2.225,3.939,0.743,1.225,1.776,4.85-.4,5.244,0.764,3.48-.1,7.2-0.842,10.913-2.3,11.411-2.417,22.212,7.237,29.592a27.447,27.447,0,0,1-6.533-10.992c-0.155-.522-0.573-1.164-0.188-1.706,0.692,0.374.721,1.267,0.895,1.894a13.524,13.524,0,0,0,.713,2.069,26.761,26.761,0,0,0,9.192,11.033,1.755,1.755,0,0,0-.689-1.251c-1.038-1.354-2.1-2.524-3.1-3.845-3.929-5.2-7.727-10.608-5.686-17.613a1.217,1.217,0,0,1-.816.023,6.272,6.272,0,0,1,.44-5.492c0.634-1.079,1.61-1.672,2.1-2.663-0.659.341-1.177,1.323-1.9,1.069-0.8-.279-0.689-1.688-0.6-2.456a9.5,9.5,0,0,1,.935-3,14.71,14.71,0,0,1,2.64-3.365c-0.022.028,0.668-.668,0.147-0.282-0.889.662-1.171,1.424-2.33,1.561C453.323,613.459,455.1,610.246,456.448,608.916Zm3.961-26.544a19.945,19.945,0,0,0,1.557,2.507c2.211,3.218,4.054,6.874,3.842,10.667-0.11,2.02-.917,4-0.734,6.233,0.425-.662.512-2.3,1.342-1.895,0.933,0.449-.93,2.637-0.838,3.676a2.191,2.191,0,0,1-.4.419,13.2,13.2,0,0,1,.216,2.168c0.7-.865,1.457-5.245,2.591-4.642,0.67,0.355-.02,1.627-0.321,2.335-1.066,2.516-2.688,5.4-3.17,7.649a10.325,10.325,0,0,1,1.092-1.757c0.212-.275.792-1.227,1.4-0.794,0.718,0.516-.451,1.553-0.812,2.081a10.177,10.177,0,0,0-1.944,6.319,20.147,20.147,0,0,0-.128,3.688,11.786,11.786,0,0,0,.742-2.117c0.135-.388.586-1.871,1.405-1.326,0.48,0.319.036,0.954-.166,1.522a27.427,27.427,0,0,0-1.414,4.271c-0.1.975,0.321,2.209,0.268,3.268-0.066,1.309-.873,2.621-1.087,3.814,0.8-.9,1.089-3.482,2.1-3.018,0.866,0.4-.3,3.133-0.7,4.282a17.3,17.3,0,0,0-.746,2.294c-0.122.657-.216,1.662,0.15,1.776,0.511-.64.5-1.761,1.164-1.9a2.282,2.282,0,0,1,1.018.8c-0.166,2.152-1.085,4.256-1.056,6.334a18.015,18.015,0,0,0,.986,4.981c0.047,0.153-.048.469,0.206,0.464,2.97-3.538,2.163-8.021,1.881-11.535a23.273,23.273,0,0,1,.074-4.788c0.208-1.655.942-3.407,0.932-5.058a19.629,19.629,0,0,0-.8-3.277A9.089,9.089,0,0,1,469,618.3a29.674,29.674,0,0,1,1.337-3.953,6.872,6.872,0,0,0,.092-3.617,14.355,14.355,0,0,1-.068-7.1c0.429-1.472,1.047-2.713,1.34-3.951a8.773,8.773,0,0,0,.2-3.652c-0.618-3.156-3.259-5.1-4.3-8.4-0.755-2.387-1.1-5.427-3.51-7.008a6.356,6.356,0,0,0-5.306-.969A11.747,11.747,0,0,1,460.409,582.372Zm18.477,20.863c0.022-1.714-.965-3.664-1.055-5.2-0.141-2.437,1.2-4.869,1.031-6.973a6.915,6.915,0,0,0-3.674-5.484c-0.663-.4-1.149-0.523-1.689-0.878-1.246-.817-1.621-2.758-2.963-3.416a4,4,0,0,0-3.661.511c1.419,1.945,1.119,4.21,2.134,6.382,1.1,2.349,3.244,4.45,3.9,6.767a10.35,10.35,0,0,1-.308,6.1c-0.726,2.2-1.65,4.349-1.522,6.538,0.1,1.7.765,2.977,0.815,4.624,0.087,2.764-1.986,5.487-1.828,8.167,0.089,1.522.845,2.819,0.961,4.343,0.129,1.72-.62,3.575-0.867,5.449-0.562,4.314.895,8.766-.093,12.912a11.79,11.79,0,0,1-1.758,3.555,19.063,19.063,0,0,0-2.545,6.275c1.407,0.351,2.123-.632,2.982-2.473,0.433-.926.945-1.818,1.317-2.534a40.235,40.235,0,0,0,4.264-11.816,56.513,56.513,0,0,0,.412-10.6c-0.131-3.357-.968-6.51-1.511-9.991a22.927,22.927,0,0,1-.234-7.808c0.093-.468.491-2.731,1.348-2.25,0.538,0.3-.119,1.135-0.276,1.734-0.181.692-.124,1.591-0.281,2.089C476.072,608.288,478.847,606.3,478.886,603.235ZM460.87,625.694c0.092,1.465.52,3.223-.221,5.069a2.942,2.942,0,0,1-.013,3.122,1.007,1.007,0,0,1-.88-0.369c1.6,3.875.846,9.084,2.348,13.2a6.472,6.472,0,0,0,2.5,3.445c-0.99-3.589-2.148-7.534-2.308-11.388-0.018-.461-0.269-1.286.344-1.519,0.516,1.023.267,2.229,0.409,3.341a71.386,71.386,0,0,0,2.2,8.832c0.041,0.156-.01.543,0.24,0.571a12.669,12.669,0,0,1,.77-1.656c-0.974-3.671-2.257-7.246-1.133-11.582a0.65,0.65,0,0,1-.786.485c-1.632-.39-0.693-3.981-0.455-4.973-2.478-.121-0.192-3.574-0.023-5.465,0.155-1.726-.839-3.194-0.1-4.612-1.2-.778-0.49-2.473-0.765-3.347C461.71,621.584,460.731,623.46,460.87,625.694Zm21.553,7.891c-0.911,1.465-1.6,3.069-2.485,4.608a67.076,67.076,0,0,1-4.436,6.991c-0.608.816-1.29,1.372-1.916,2.312-0.382.573,0.589-.432,0.575-0.417a64.989,64.989,0,0,0,8.878-9.866,33.383,33.383,0,0,0,6.3-17.463,14.843,14.843,0,0,1,.869-5.626c1.017-2.354,2.98-4.069,4-5.968a6.378,6.378,0,0,0,.014-5.534,8.573,8.573,0,0,0-2.505-3.09,36.169,36.169,0,0,0-4.218-2.549,10.343,10.343,0,0,1-2.97-2.884c-1.117-1.541-2.1-3.71-4.38-3.438a7.923,7.923,0,0,0-.062,1.666c-0.17,1.705-1.279,3.9-1.018,6.085,0.325,2.709,1.755,4.4.527,7.246-1.342,3.1-3.714,3.8-5.756,5.054,0.35,4.148,1.476,8.115,1.939,12.269a56.062,56.062,0,0,1-.131,12.982c1.2-1.819,1.584-4.376,2.435-6.064,0.6-1.184,1.548-1.411,2.057-2.238-0.423.424-.826,0.6-1.14,0.3-0.21-.2,0-0.263.046-0.6s-0.011-.571.047-0.78c0.4-1.431,2.31-5.19,3.122-4.634,0.525,0.359-.413,1.56-0.852,2.328a6.581,6.581,0,0,0-.989,2.078c0.5-.471,1.321-0.833,1.793-1.214,0.328-.267.751-1.122,1.321-0.654,0.288,0.236-.085,1.713-0.134,1.807a9.284,9.284,0,0,1-2.015,1.814,17.373,17.373,0,0,0-2.085,1.776,9.378,9.378,0,0,0-1.072,2.751c-0.858,2.423-1.94,4.84-2.983,7.12a21.539,21.539,0,0,0,3.477-4.629c0.294-.484.531-1.463,1.227-1.329a4.949,4.949,0,0,1-1.1,2.289,18.76,18.76,0,0,1-1.421,2.39,32.64,32.64,0,0,0-2.274,2.483,71.541,71.541,0,0,0-4.461,8.586c1.352-1.913,3.233-3.527,4.735-5.673a87.358,87.358,0,0,0,5.79-9.594,38.8,38.8,0,0,1,2.686-3.967c0.232-.331.488-1.192,1.08-0.87A23.787,23.787,0,0,1,482.423,633.585Zm-22.941,6.136c0.255,1.624-.125,3.052.1,4.79a1.332,1.332,0,0,1-.26.67,15.628,15.628,0,0,0,2.125,2.623c-1.834-3.718-1.353-8.528-2.468-12.455-0.053-.186-0.005-0.614-0.309-0.607C457.7,636.795,459.222,638.069,459.482,639.721Z" transform="translate(-425.406 -577.906)"/>
</svg>
