<?xml version="1.0" encoding="utf-8"?>
<!-- Generator: Adobe Illustrator 25.4.1, SVG Export Plug-In . SVG Version: 6.00 Build 0)  -->
<svg version="1.1" id="Layer_1" xmlns="http://www.w3.org/2000/svg" xmlns:xlink="http://www.w3.org/1999/xlink" x="0px" y="0px"
	 viewBox="0 0 194 143" style="enable-background:new 0 0 194 143;" xml:space="preserve">
<style type="text/css">
	.st0{fill-rule:evenodd;clip-rule:evenodd;fill:#C4FF88;stroke:#004B1A;stroke-miterlimit:10;}
</style>
<path class="st0" d="M174.7,35.9c-0.1,0-0.1-0.1-0.2-0.1c-0.2,0.2-0.3,0.5-0.5,0.6c-0.2,0.2-0.6,0.2-0.7,0.3
	c-0.4,0.4-0.8,0.6-1.3,0.8c-0.1,0.7-0.8,0.9-1.3,1.3c-0.4,0.3-0.7,0.6-1.1,0.9c-0.1,0.1-0.1,0.3-0.2,0.4c0.4-0.2,0.6-0.5,1-0.4
	c0.3,0.1,0.3-0.2,0.4-0.4c0.1-0.1,0.5-0.1,0.6-0.2c0.1-0.4,0.4-0.5,0.7-0.7c0.3-0.2,0.7-0.4,0.9-0.7c0.2-0.3,0.6-0.3,0.9-0.4
	c-0.1-0.2-0.1-0.4-0.3-0.6h0.9V35.9z M65.8,13.8c-0.8,0.4-1,1.2-1.4,1.9c-0.3,0.7-0.5,1.4-0.8,2c-0.3,0.7-0.5,1.5-0.5,2.2
	c0,0.8-0.6,1.5-0.2,2.3c0.1-0.2,0.2-0.4,0.3-0.6c0.1-0.1,0-0.3,0-0.4c0.1-0.5,0.2-1,0.4-1.5c0.1-0.6,0.4-1.1,0.3-1.7
	c0.6-1.2,0.8-2.6,1.6-3.7C65.7,14.2,65.7,14,65.8,13.8L65.8,13.8z M181.5,43.9c0.1,0,0.2,0.1,0.3,0c0.6-0.5,1.3-1.1,1.9-1.6
	c1.2-1.2,2.2-2.6,3.2-4.1c0.4-0.7,0.9-1.3,1.1-2.1c0.1-0.4-0.2-0.3-0.3-0.5c-0.8,1.5-1.5,3.1-2.6,4.3
	C184,41.3,182.7,42.6,181.5,43.9L181.5,43.9z M172.7,15.8c0.2,0.1,0.4,0.3,0.6,0.4c0.2,0.1,0.4,0.2,0.5,0.3
	c-0.3,0.5-0.3,0.5,0.1,0.8c0.1,0.1,0.4,0.2,0.4,0.4c0.1,0.6,0.4,0.2,0.6,0.3c0-0.4-0.1-0.8-0.1-1.1c0.5-0.3,0-0.6,0-0.9
	c0-0.2-0.2-0.4-0.3-0.5c0,0-0.3,0.1-0.4,0.2c-0.1-0.3-0.2-0.5-0.4-0.8c0.3,0.1,0.5,0.2,0.7,0.3c0.2-0.5-0.3-0.3-0.4-0.5
	c-0.1-0.2,0-0.5,0-0.8h-1.5c-0.1-0.2-0.1-0.3-0.2-0.6c-0.1,0.9-0.1,0.9,0.3,1.2c0-0.1,0.1-0.3,0.1-0.4c0.2,0.2,0.4,0.4,0.5,0.5
	c0.2-0.1,0.3-0.2,0.5-0.3c-0.1,0.7-0.6,0.8-0.9,1.1V15.8z M157.9,108c-0.2,0.3-0.4,0.6-0.3,0.6c0.3,0.3,0.1,0.7,0.2,1.1
	c0,0.4,0.1,0.8,0,1.1c-0.1,0.4,0.4,0.6,0,1c0.4,0.3,0.2,0.7,0.2,1c0,0.4,0,0.8,0,1.1c0,1.4,0,2.9,0,4.3c0,0.1,0.1,0.3,0.1,0.4
	c0.1-0.6,0.3-1.2,0.3-1.7c0.1-1.3,0-2.7,0.2-4c0.1-0.6-0.1-1.2-0.2-1.7C158.4,110.2,158.1,109.2,157.9,108L157.9,108z M158.1,134.3
	c0.3-0.4,0.6-0.8,0.8-1.1c0.6-1.2,1.7-2.3,1.8-3.8c0-0.1,0.1-0.1,0.2-0.2c0.3-0.4,0.5-0.9,0.5-1.5c0-0.6,0.1-1.1,0.4-1.7
	c0.1-0.2,0.2-0.5-0.2-0.7c-0.1,0.2-0.3,0.4-0.4,0.6c-0.1,0.3-0.1,0.7-0.2,1c-0.3,0.9-0.5,1.9-1,2.8c-0.1,0.1-0.1,0.3-0.1,0.4
	c0.1,0.6-0.2,1.1-0.5,1.5c-0.6,0.7-0.8,1.7-1.6,2.3L158.1,134.3z M74.5,12.4c-0.5-0.3-0.9-0.5-1.4-0.7c-0.1,0.1-0.2,0.2-0.3,0.3
	c0.1,0.1,0.1,0.2,0.2,0.2c-0.5,0.4-1,0.8-1.5,1.2c0,0.1,0.2,0.2,0.2,0.2c-0.2,0.3-0.4,0.5-0.5,0.8c-0.4,0.6-0.8,1.2-0.5,2
	c0.5-0.3,0.8-1,1.5-0.9c-0.1-0.2-0.2-0.4-0.2-0.5c0.3-0.4,0.5-0.8,0.9-1.1c0.4-0.2,0.7-0.6,0.8-0.9C73.7,12.5,74.1,12.6,74.5,12.4
	L74.5,12.4z M105.8,91.3l0.2-0.2c-0.1-0.1-0.1-0.2-0.2-0.2c-0.4,0-1,0-1.1-0.1c-0.6-0.6-1.3-0.4-2-0.3c-0.6,0.1-1.1,0.5-1.7,0.8
	c-0.2,0.1-0.4,0.2-0.5,0.2c-0.1,0-0.2-0.2-0.3,0c-0.1,0.1-0.2,0.3-0.4,0.6c0.7-0.3,1.1,0.5,1.7-0.1c0,0,0.3,0.1,0.3,0.2
	c0,0.3,0.3,0.3,0.4,0.2c0.6-0.3,1.2-0.1,1.8-0.2c0-0.2,0.1-0.4,0.1-0.5c0.2,0.2,0.3,0.3,0.5,0.5c0,0-0.2,0.1-0.1,0
	c0.1,0.1,0.3,0.3,0.5,0.5c0.1-0.4-0.2-1,0.5-1.2c0.3,0.3,0.7,0.3,1.2,0.1C106.3,91.6,106,91.4,105.8,91.3L105.8,91.3z M108.8,95
	c-0.3,0.5-0.8-0.1-1.1,0.2c-0.4-0.4-0.8-0.1-1.3-0.3c-0.2,0,0.2-0.6-0.3-0.3c-0.3,0.2-0.8,0.1-1.2,0.1c-0.1-0.3-0.1-0.5-0.2-0.9
	c-0.1,0.3-0.1,0.4-0.2,0.6c-0.3-0.2-0.6-0.4-0.9-0.6c0.1-0.2,0.1-0.4,0.2-0.7c-0.4-0.3-0.9-0.4-1.6-0.2c0.5,0.2,0.8,0.4,1.2,0.6
	c-0.1,0.2-0.2,0.4-0.3,0.6c-0.2-0.1-0.1-0.7-0.6-0.3c0.1,0.2,0.2,0.4,0.3,0.6c-0.1,0-0.2,0.1-0.2,0.1c-0.4-0.2-0.7-0.4-1.1-0.6
	c-0.3,0.6-1,0.9-1.7,1.1c0.1-0.2,0.1-0.4,0.2-0.6c-0.2-0.1-0.3-0.6-0.8-0.5c0.1,0.4,0.1,0.7,0.2,1c-0.4,0.2-0.4,0.3-0.3,0.5
	c-0.5,0.4-0.6-0.4-1-0.4c0,0.3-0.1,0.5-0.1,0.7c-0.2,0-0.3-0.3-0.7-0.1c-0.4,0.3-1,0.5-1.4,0.8c-0.4,0.3-0.8,0.2-1.2,0
	c0,0.2,0,0.4,0,0.6c-0.6-0.1-1,0.3-1.6,0.4c-1.3,0.4-2.5,0.9-3.7,1.4c-1.1,0.4-2.2,0.9-3.3,1.3c-0.9,0.4-1.8,0.7-2.7,1.1
	c-1.2,0.4-2.4,1-3.7,1.5c-1,0.4-1.9,0.8-2.9,1.2c-0.3,0.1-0.6,0.4-1,0.3c-0.1,0-0.2,0-0.3,0.1c-0.9,0.8-2.1,0.8-3,1.4
	c-0.1,0-0.1,0.1-0.2,0c-0.9-0.2-1.6,0.4-2.4,0.8c-1.2,0.5-2.5,1-3.8,1.3c-0.3,0.1-0.6,0.1-0.8,0.2c-0.2,0.1-0.5,0-0.7,0.1
	c-0.3,0.1-0.5,0.3-0.7,0.5c-0.3,0.3-0.4-0.3-0.7,0c-0.2,0.2-0.7,0.2-1,0.3c-0.5,0.3-1.1,0.2-1.6,0.6c-0.1,0.1-0.4,0.1-0.5,0
	c-0.3-0.1-0.4-0.2-0.6,0.2c-0.1,0.2-0.6,0.2-0.9,0.3c-1,0.2-1.9,0.7-2.9,0.7c-0.8,0.6-1.8,0.5-2.6,0.7c-0.2,0.1-0.4,0.1-0.6,0.2
	c-0.4,0.1-0.8-0.1-1.2,0.2c-0.3,0.2-0.8-0.1-1.1,0.2c-0.1,0.1-0.4,0-0.5-0.1c-0.4-0.2-0.2,0.1-0.3,0.2c-0.1,0.1-0.3,0-0.5,0.1
	c-0.6,0.3-1.2,0.4-1.9,0.3c-1.2-0.1-2.3,0.3-3.4,0.3c-0.3,0-0.7,0.2-1.1,0c-0.7,0.3-1.3-0.1-2,0c-0.3,0.1-0.6,0.3-0.8,0.2
	c-0.5-0.2-1.1-0.2-1.6-0.2c-0.5,0-1.1-0.1-1.6-0.2c-0.1,0-0.2,0-0.2,0c-0.2-0.4-0.6-0.1-0.9-0.2c-0.6-0.2-1.2-0.1-1.8-0.4
	c-0.4-0.2-0.8-0.4-1-0.7c-0.1,0.2-0.1,0.3-0.2,0.5c-0.8-0.6-2-0.5-2.7-1.6h-0.8c-0.1-0.2-0.2-0.5-0.3-0.5c-0.6,0-1.1,0-1-0.8
	c0-0.1-0.3-0.3-0.7-0.6c0.1,0.4,0.2,0.6,0.3,1c-0.4-0.3-0.8-0.5-1.1-0.7c-0.3-0.2-0.6-0.4-0.8-0.7c-0.2-0.3-0.6-0.4-0.9-0.8
	c-0.2-0.3-0.4-0.6-0.6-0.9c-0.3-0.3-0.4-0.6-0.8-0.8c-0.2-0.1-0.3-0.6-0.4-0.9c0.1-0.1,0.2-0.2,0.3-0.3c0.1,0.1,0.2,0.1,0.3,0.3
	c0-0.2,0-0.4-0.1-0.5c-0.3-0.4-0.7-0.5-1-0.7c-0.2-0.1-0.4-0.2-0.4-0.3c-0.1-0.2,0-0.5-0.1-0.7c-0.1-0.2-0.4-0.2-0.4-0.4
	c0-0.6-0.4-1.1-0.2-1.7c-0.4-1-0.2-2-0.2-3c-0.1-1.8,0.4-3.6,1-5.2c0.7-1.9,1.7-3.6,2.9-5.2c0.9-1.1,1.7-2.3,2.6-3.3
	c1.3-1.4,2.4-3,3.5-4.6c0.3-0.5,0.5-1.1,0.9-1.6c0.3-0.5,0.5-1.1,0.7-1.6c0.2-0.5,0.2-1,0.3-1.6c0.1-0.4-0.1-0.9,0.2-1.3
	c0.1-0.1,0-0.3,0-0.4c0-0.2-0.2-0.3-0.2-0.5c-0.1-2.4-1.4-4.4-3.3-5.8c-1.1-0.8-2.3-1.5-3.5-2.2c-1.6-1.1-3.4-1.9-5-3
	c-1.3-0.8-2.6-1.6-3.9-2.3c-1.5-0.9-3-1.6-4.3-2.7c-0.7-0.1-1.1-0.8-1.7-1c-0.7-0.3-1.2-0.9-1.8-1.4c-0.7-0.5-1.3-1.1-2-1.7
	c-0.4-0.3-0.7-0.8-1.2-1c-0.3-0.1-0.5-0.4-0.6-0.6c-0.2-0.5-0.6-0.8-1-1.2c-1.6-1.8-2.9-3.8-3.6-6.2c-0.3-1-0.4-2-0.9-2.9
	C0.4,39.4,0,38.6,0,37.8c0-0.8-0.1-1.6,0-2.4c0.3-1.1,0.2-2.3,0.9-3.4c0.2-1.5,1.7-4.3,2.4-5.3c0.8-1.2,1.9-2.2,3-3.1
	c0.6-0.5,1.2-0.9,2-1.1c0.5-0.1,1-0.4,1.5-0.5c0.5-0.1,0.9-0.2,1.3,0c0.2,0.1,0.4-0.1,0.7-0.1c0.4,0,0.8,0,1.2,0
	c0.3,0,0.6,0.3,0.9,0c0.3,0.4,0.8,0.1,1.2,0.2c0.3,0.1,0.6,0.3,0.9,0.4c0.5,0.2,1.1,0.3,1.6,0.5c0.2,0,0.3,0.1,0.5,0.2
	c0.9,0.6,1.9,0.8,2.8,1.1c1,0.4,2.1,0.7,3,1.2c0.7,0.3,1.4,0.6,2.1,0.8c0.7,0.3,1.5,0.7,2.2,0.9c1.5,0.5,3,1.3,4.5,2
	c1.9,0.9,3.8,1.8,5.7,2.7c3.3,1.6,6.6,3.2,9.9,4.8c0.8,0.4,1.6,0.8,2.5,1c0.4,0.1,0.7,0.4,1.2,0.5c0.6,0.1,1.2,0.3,1.8,0.4
	c0.5,0.1,1,0.1,1.5,0.3c0.8,0.3,1.6,0.3,2.5,0.6c0.9,0.3,1.8-0.1,2.5-0.7c0.3-0.3,0.6-0.6,0.9-0.9c1.2-1.1,1.5-2.4,1-3.9
	c-0.2-0.7-0.5-1.3-0.5-2.1c-0.5-0.4,0-1.1-0.4-1.5c0.1-0.8-0.1-1.7,0.2-2.5c0.2-0.6,0.4-1.2,0.3-1.9c-0.2-1.7,0.2-3.5,0.3-5.2
	c0.1-1.2,0.4-2.4,0.7-3.6c0.2-0.8,0.6-1.6,0.9-2.4c0.3-0.9,0.9-1.6,1.5-2.4c1.1-1.7,2.6-2.9,4.3-4c1.2-0.8,2.5-1.5,3.8-1.9
	c0.6-0.2,1.2-0.2,1.8-0.4c0.6-0.2,1.3,0,1.8-0.2c0.6-0.2,1.2-0.2,1.7-0.2c1.1,0.1,2.1,0.3,3.2,0.4c1,0.2,2,0.6,3,1
	c1.3,0.5,2.5,1.1,3.6,2c0.2,0.1,0.4,0.2,0.5,0.4c0.7,0.9,1.4,1.7,2,2.7c1,1.6,2.2,2.7,3.6,3.8c0.2,0.2,0.4,0.5,0.6,0.7
	c0.4-0.1,0.6-0.3,0.9-0.3c0.3,0,0.5-0.1,0.8-0.2c0.3-0.1,0.6-0.1,0.9,0c0.3,0.1,0.5-0.3,0.8-0.1c0.1,0.1,0.3-0.1,0.5-0.2
	c0.2-0.1,0.4-0.1,0.6-0.2c0.3-0.2,0.4,0.3,0.7,0.1c0.2-0.1,0.4-0.1,0.6-0.1c0.2-0.1,0.5-0.2,0.7-0.2c0.3-0.1,0.6,0.1,0.9,0.2
	c0.2,0,0.5-0.3,0.7-0.4c0.3-0.1,0.7-0.1,1-0.2c0.3-0.1,0.9-0.2,1,0.4c0,0,0.3,0,0.5,0c-0.1-0.2-0.2-0.4-0.2-0.5
	c0.4-0.2,0.6-0.6,1.1-0.2c0.2-0.2,0.3,0,0.4,0c0.3,0,0.4-0.7,0.9-0.2c0.3-0.1,0.6-0.3,0.9-0.4c0.1,0,0.3,0.2,0.5,0.2
	c0.2-0.1,0.3-0.4,0.5-0.1c0.2,0.2,0.3-0.1,0.4,0c0.1,0.1,0.1,0.2,0.2,0.4c0.8-0.2,0.8-0.2,0.9-0.9c0.2,0.1,0.4,0.2,0.6,0.3
	c0.1,0.1,0.2,0.3,0.3,0.4c0.1-0.2,0.3-0.4,0.4-0.6c1.6,0.4,1.7,0.4,2.3-0.7h0.8c0.1,0.1,0.1,0.3,0.2,0.4c0.1-0.6,0.1-0.6,0.7-0.9
	c0.2-0.1-0.2,0.6,0.3,0.3c0.3-0.2,0.6-0.2,0.9,0c0.1,0.1,0.4,0.1,0.6,0c0.4-0.1,0.9-0.1,0.8-0.8c0-0.1,0.2-0.3,0.5-0.1
	c0.3,0.2,0.7,0.2,1.2,0.3c-0.1-0.2-0.1-0.4-0.2-0.6c0.6,0.2,1.2,0.4,1.6-0.1c0.2-0.2,0.4,0.2,0.7,0c0.5-0.3,1.1-0.3,1.7-0.4
	c0-0.1,0-0.3,0.1-0.5c0.1,0,0.1-0.1,0.1-0.1c0.3,0,1.3-0.1,1.6-0.2c0.5-0.2,1.1-0.3,1.6-0.5c2.5-0.7,5-1.7,7.5-2.4
	c1.8-0.5,3.6-1.1,5.4-1.5c1.5-0.4,3.1-0.8,4.6-1.2c0.8-0.3,1.7-0.4,2.6-0.5c0.3-0.1,0.5-0.2,0.8-0.2c0.5-0.1,0.9-0.2,1.4-0.2
	c0.5-0.1,0.9-0.1,1.4-0.2c1-0.3,2-0.3,3-0.6c0.6-0.2,1.2,0,1.8-0.2c0.5-0.2,1.1,0,1.6-0.3c0.5-0.3,1-0.1,1.6-0.4
	c0.5-0.2,1.2,0,1.8-0.2c0.2-0.1,0.6,0.1,0.9,0.3c0.4,0.2,0.7,0.3,1.1-0.1c0.2-0.2,2.1-0.9,2.2-0.9c0.4,0.4,0.8,0,1.3-0.1
	c-0.1,0.2-0.1,0.4-0.1,0.5c0,0.1-0.1,0.2-0.1,0.4c0.5-0.2,0.5-0.5,0.5-0.9c0.2,0.1,0.4,0.3,0.4,0.2c0.3-0.2,0.5-0.1,0.7,0
	c0.2,0.1,0.5-0.1,0.7-0.2c0.1,0,0.3,0,0.4,0c0.2,0,0.4,0.4,0.6,0.1c0.2-0.3,0.5,0.2,0.6,0c0.4-0.4,0.7,0.1,1.1,0.1
	c0.3,0,0.7,0.1,0.8,0.5c0,0,0.3,0.1,0.4,0.1c0.2-0.1,0.3-0.3,0.5-0.1c0.5,0.5,1.2,0.5,1.7,1c0.1,0.1,0.3,0.3,0.5,0.2
	c0.3,0,0.5,0.2,0.6,0.4c0.2,0.3,0.4,0.5,0.7,0.7c0.3,0.2,0.5,0.5,0.9,0.5c0.3,0,0.5,0.5,0.9,0.7c1.2,0.4,2.3,1.1,3.3,1.8
	c1,0.7,2.1,1.3,3,2.1c0.6,0.5,1.2,1,1.7,1.5c0.9,0.9,1.5,2,2.3,2.9c1.1,1.3,1.7,2.8,2.5,4.3c0.7,1.3,1.1,2.7,1.4,4.2
	c0.2,0.9,0.2,1.8,0.6,2.7c0,0,0,0.1,0,0.1c-0.2,0.9,0.3,1.7,0.2,2.6c0,0.9,0,1.7,0,2.6c0,0.3-0.2,0.7-0.2,1c0,0.3,0,0.6-0.2,0.9
	c-0.1,0.2-0.1,0.6-0.2,0.9c-0.1,0.2,0.1,0.5,0.2,0.8c0.1,0.3,0,0.6-0.4,0.6c-0.1,0.6-0.6,1.1-0.7,1.6c-0.2,1.1-1,1.8-1.2,2.8
	c-0.5,0.3-0.4,1-0.9,1.4c-0.4,0.3-0.5,0.8-0.8,1.2c-0.3,0.4-0.7,0.8-1,1.3c-0.1,0.1-0.2,0.2-0.2,0.3c0.1,0.7-0.4,0.9-0.7,1.3
	c-0.6,0.6-1.1,1.2-1.8,1.8c-1,1-2.1,1.9-3.3,2.7c-0.8,0.5-1.4,1.3-2.2,1.7c-0.9,0.5-1.7,1.1-2.6,1.6c-1.1,0.7-2.2,1.3-3.4,1.9
	c-1.2,0.7-2.4,1.2-3.6,1.9c-0.7,0.4-1.4,0.9-2.1,1.2c-1,0.4-1.9,1.1-2.8,1.6c-1.2,0.6-2.3,1.5-3.4,2.2c-1,0.6-1.7,1.5-2.5,2.3
	c-0.3,0.3-0.6,0.7-1.1,0.9c-0.4,0.2-0.7,0.6-0.9,1.1c-0.4,0.9-0.8,1.8-1.1,2.7c-0.1,0.4,0,0.8-0.1,1.2c0,0.3,0.3,0.8-0.4,0.9
	c0,0-0.1,0.3-0.1,0.4c0,0.8,0,1.6,0,2.4c0,0.5,0.4,1,0.2,1.5c0.5,0.5,0.1,1.1,0.4,1.6c0.3,0.5,0.1,1.1,0.3,1.7
	c0.2,0.7,0.5,1.4,0.6,2.1c0,0.8,0.5,1.5,0.6,2.4c0.1,0.7,0.6,1.4,0.7,2.2c0.2,1,0.5,1.9,0.7,2.9c0,0.1-0.1,0.2-0.2,0.4
	c0.1,0,0.2,0.1,0.4,0.1c0,0.7,0.2,1.4,0.4,2.1c0.1,0.3,0,0.6,0.1,0.9c0,0.3,0.2,0.5,0.2,0.8c0,0.3,0,0.6,0.2,0.9
	c0.2,0.3,0.2,0.6,0.2,0.9c0,0.3,0.1,0.6,0.2,0.9c0.2,0.3-0.4,0.5,0,0.8c0.3,0.2,0.1,0.6,0.2,0.8c0.3,0.5,0.2,1.1,0.4,1.6
	c0.1,0.3,0.2,0.8,0.3,1.1c0.1,0.4-0.1,0.8,0.2,1.1c-0.4,0.2,0,0.3,0,0.5c0,0.2,0.1,0.3,0.1,0.5c0,0.2,0,0.4,0,0.6
	c0,0.1-0.1,0.2-0.1,0.2c0.6,0.5,0.3,1.2,0.6,1.8c0.1,0.3,0.1,0.6,0.2,0.9c0.1,0.4,0.4,0.9,0.3,1.4c0,0.2,0.1,0.5,0.2,0.7
	c0.2,0.3,0.2,0.7,0.2,1c0,0.5,0.1,0.5,0.2,1.1c0.1,0.6,0.5,1.1,0.5,1.6c0,0.5,0.6,1,0.1,1.5c0,0,0.2,0.2,0.3,0.3
	c0.2,0.3,0.2,0.6,0.3,0.9c0.1,0.4,0.1,0.7-0.1,1.1c0.1,0,0.2,0.1,0.3,0.1c0,0,0.1,0.1,0.1,0.1c0.1,0.6,0.2,1.3,0.2,1.9
	c0.1,0.6-0.2,1.2,0.2,1.7c0.1,0.2-0.4,0.4,0,0.7c0.1,0.1-0.1,0.4-0.1,0.7c0.1,0,0.3,0.1,0.4,0.1c0,0.6-0.7,1.2-0.3,1.9
	c-0.3,0.1-0.9,0-0.9,0.8c0.2-0.1,0.3-0.2,0.5-0.2c0.1,0.1,0.2,0.1,0.2,0.1c0,0.3-0.1,0.5-0.1,0.8c0,0.1,0,0.2,0,0.2
	c0.6,0.2,0,0.7,0.3,1.1c0.3,0.3-0.1,0.8-0.2,1.2c-0.1,0.4-0.2,0.7-0.2,1c-0.1,0.5,0,1.1-0.3,1.5c-0.2,0.4-0.1,0.9-0.3,1.3
	c-0.2,0.4-0.5,0.7-0.4,1.2c-0.5,0.6-0.5,1.5-0.9,2.1c-0.1,0.1-0.3,0.2-0.4,0.3v1.1c-0.3,0.2-0.7,0.2-0.7,0.7c-0.5,0.3,0.2,0.6,0,1
	c-0.1,0-0.2,0.1-0.3,0c-0.1-0.1-0.2-0.2-0.4,0c-0.1,0.2-0.1,0.2,0,0.3c0.1,0.4-0.2,0.9-0.2,0.8c-0.4-0.4-0.5,0.1-0.7,0.2
	c-0.1,0-0.2,0.2-0.1,0.3c0.2,0.7-0.4,0.9-0.8,1.1c-1.2,0.7-1.2,0.7-2.1,0.7c0,0.2,0,0.4,0,0.6c0.1,0.3-0.1,0.5-0.3,0.7
	c-0.7,0.4-1.4,0.8-2.1,1.2c-0.7,0.3-1.4,0.7-2.2,0.8c-1.1,0.1-2.1,0.6-3.3,0.6c-1.1-0.1-2.2,0-3.3,0c-1.2,0-2.3-0.3-3.4-0.6
	c-0.8-0.2-1.5-0.4-2.2-0.7c-0.4-0.2-1-0.3-1.5-0.3c-0.7,0.1-1.3-0.2-2-0.4c-1.7-0.8-3-1.7-4.4-2.7c-0.7-0.5-1.5-1-2.1-1.7
	c-1-1.1-1.8-2.3-2.5-4.1c-0.4-0.9-0.9-1.8-1.4-2.6c-1-1.6-1.7-3.1-2.7-5.1c-0.8-1.7-1.4-3.4-2.1-5.1c-0.4-0.9-0.8-1.8-1.1-2.7
	c-0.3-0.9-0.6-1.8-1.2-2.7c-0.3-0.5-0.5-1.1-0.9-1.7c-0.6-1-1.1-2-1.6-3.1c-0.6-1.3-1.3-2.5-1.8-3.8c-0.5-1.1-1.2-2.1-1.6-3.3
	c-0.5-1.1-1.1-2.2-1.6-3.3c-0.5-1-1.2-1.9-2.4-2.4C109.9,96,109.3,95.6,108.8,95L108.8,95z"/>
</svg>
