<svg xmlns="http://www.w3.org/2000/svg" width="70.062" height="61.406" viewBox="0 0 70.062 61.406">
  <defs>
    <style>
      .cls-1 {
        fill: #004b1a;
        fill-rule: evenodd;
      }
    </style>
  </defs>
  <path class="cls-1" d="M647.152,619.382a2.727,2.727,0,0,1-2.605-3.107,2.9,2.9,0,0,1,2.412-2.427C650.978,613.058,650.686,619.572,647.152,619.382Zm0-4.079c-1.555.377-1.558,3.138,0.386,2.817C648.863,617.9,649.154,614.82,647.152,615.3Zm-14.278,31.954a125.6,125.6,0,0,1-10.708,6.6c-10.758.1-20.457-.166-31.161,0-1.621.026-3.406,0.139-4.438-.291-3.6-1.5-2.508-6.821-2.508-11.655,0-8.43.571-16.222,1.061-24.28,0.04-.656-0.181-1.452-0.1-1.942,0.169-.979,1.965-2.533,2.7-3.4,1.988-2.336,3.507-4.068,5.6-6.411,0.877-.984,2.4-2.163,2.7-3.3,0.64-2.442-.621-5.648.192-7.479,1.38-3.1,6.646-2.333,10.13-2.333,4.215,0,9.181-.033,12.541-0.191,5.954-.283,10.4-0.161,10.13,5.633a11.659,11.659,0,0,0,0,3.3c0.222,0.84,2.53,2.742,3.184,3.4,0.987,1,2.5,2.154,2.99,3.594a21.909,21.909,0,0,1,.386,4.371c0.692,8.737.675,17.891,0.675,27.29,0,1.525.262,3.653-.1,4.564C635.846,645.516,633.65,646.735,632.874,647.257Zm-47.464-.973a17.194,17.194,0,0,0,.1,4.274c0.675,2.416,2.815,2.029,5.692,1.942,10.066-.3,20.643-0.1,30.678-0.194-0.467-11.842.391-23.681,0.1-35.351-11.953-.331-23.473.055-35.6,0C585.934,626.2,585.739,636.7,585.41,646.284Zm10.612-41.565c-2.837,3.3-5.236,6.351-7.911,9.516-0.436.516-1.205,1.049-1.062,1.555,11.291-.36,22.636-0.8,34.055-0.293a108.767,108.767,0,0,0,5.982-12.43,0.9,0.9,0,0,1-.29.1c-4.211.254-9.4,0.1-14.567,0.1h-11a18.8,18.8,0,0,0-3.762,0A6.469,6.469,0,0,0,596.022,604.719Zm29.713-10.586a28.6,28.6,0,0,0-4.92,0c-4.606,0-8.881.095-13.41,0.095-4.274,0-9.97-1.092-10.129,2.526,0.923-.364,1.067-1.514,2.218-1.651,0.051,0.144.143,0.244,0.194,0.389-0.635,1.142-2.145,1.4-2.316,3.01,0.562-.357,1.274-0.96,2.026-1.553,0.658-.521,1.383-1.614,2.219-1.263-0.565,1.2-2.223,2.274-3.28,3.2-0.362.318-1.112,0.623-.868,1.263,1.515-1.037,3.386-2.578,5.016-3.789,0.468-.346,1.158-1.224,1.833-0.777a3.8,3.8,0,0,1-1.64,1.652c-1.307,1-2.531,1.928-3.762,2.914-0.536.428-1.583,0.94-1.351,1.844,2.313-1.544,4.835-3.484,7.139-5.148,0.628-.453,1.618-1.733,2.412-0.969-2.393,2.218-5.681,4.058-7.814,6.213,1.491,0.018,1.951-.585,2.894-1.26a45.65,45.65,0,0,1,5.017-3.5,2.812,2.812,0,0,0,.192.291c-1.4,1.829-3.622,2.827-5.3,4.369,3.073,0.149,3.708-2.158,5.884-2.912a2.993,2.993,0,0,0,.193.291c-0.541,1.236-2.04,1.507-2.8,2.526,2.632,0.547,2.916-2.169,4.533-1.749-0.138.9-1.067,1-1.447,1.65,2.16,0.489,2.234-1.635,3.763-1.458,0.423,0.718-1.3,1.062-.869,1.458,1.6,0.252,2.114-1.527,3.184-1.165,0.5,0.56-.993.822-0.482,1.069,1.458,0.074,1.605-1.167,2.8-1.362a2.649,2.649,0,0,0,.193.293c-0.047.631-.69,0.666-0.964,1.069,1.84,0.48,2.081-1.642,3.376-1.069,0.134,0.613-1.093.807-.675,1.069,1,0.155,1.144-1.033,1.929-.778,0.49,0.141-.238.689,0.193,0.679,0.9,0.06.793-.886,1.736-0.775,0.4,0.25-.318.826,0.1,0.775,0.842-.09.914-0.958,1.833-0.97a2.877,2.877,0,0,0,.193.291c0.144,0.393-.785.557-0.29,0.679,0.9-.047,1.4-1.364,2.316-0.775a1.3,1.3,0,0,1-.579.775,5.6,5.6,0,0,0,1.061-.581c0.246-.105.375,0.454,0.386,0C627.842,598.217,628.358,594.694,625.735,594.133Zm2.8,8.934c-1.768,3.983-3.435,8.067-5.307,11.945,3.573-1.971,7.006-4.084,10.42-6.216A24.769,24.769,0,0,0,628.533,603.067Zm5.6,6.8c-3.544,2.488-7.348,4.712-11,7.091,0.72,10.961-.058,22.727.193,34.382a80.63,80.63,0,0,0,11.288-6.9C635.017,633.342,634.722,620.876,634.128,609.864Zm-9.454,10.1c-0.232-.914.806-1.788,1.447-2.525a30.022,30.022,0,0,1,2.7-2.718,0.46,0.46,0,0,1,.579.29,21.8,21.8,0,0,1-2.315,2.526C626.365,618.336,625.871,619.629,624.674,619.965Zm3.473-2.525a0.429,0.429,0,0,1,.386.194c-0.093.766-.951,1.475-1.544,2.137-0.548.613-1.157,1.669-2.026,1.554-0.146-.862.806-1.347,1.351-1.943A13.559,13.559,0,0,1,628.147,617.44Zm-0.386,2.235c0.307,0.768-1.331,2.959-2.316,2.524a3.044,3.044,0,0,1,1.062-1.458C626.864,620.328,627.2,619.581,627.761,619.675Zm-0.29,2.33c-0.383.814-.693,1.7-1.639,1.942a0.286,0.286,0,0,0-.194-0.194C625.989,623,626.526,621.532,627.471,622.005Zm-45.438-15.831c-2.332.3-3.067-3.227-.772-3.787C584.4,601.621,584.051,605.912,582.033,606.174Zm0.1-2.622c-0.943-.127-1.1.715-0.772,1.359,0.113,0.017.274-.015,0.289,0.1A0.86,0.86,0,0,0,582.13,603.552Zm16.764,38.273c-2.352.73-4.367,2.534-6.278,4.034-1.413,1.11-2.7,2.347-4.036,3.586-0.348.323-1.219,0.747-.686,1.429a7.321,7.321,0,0,0,2.7-2.029,41.742,41.742,0,0,1,8.157-6.3,0.484,0.484,0,0,0,.221-0.343C598.945,642.079,598.919,641.952,598.894,641.825Zm-1.206-2.637c-0.879-.384-1.856.858-2.627,1.419a45.788,45.788,0,0,0-4.915,4.06c-0.679.649-1.911,1.448-1.539,2.49,0.95-.229,1.512-1.188,2.158-1.82a49.121,49.121,0,0,1,6.907-5.749,0.781,0.781,0,0,1,.146-0.227A0.148,0.148,0,0,0,597.688,639.188ZM592.965,618.5a4.19,4.19,0,0,0-1.786,1.251c-0.481.419-1.315,0.817-1.226,1.634,1.312,0.02,2.069-1.7,3.222-2.332A0.842,0.842,0,0,0,592.965,618.5Zm3.593,18.436a22.653,22.653,0,0,0-4.843,3.45c-0.691.6-1.469,1.357-2.12,2.012-0.605.609-1.621,1.428-1.373,2.359,0.948-.107,1.49-1.089,2.084-1.707a65.761,65.761,0,0,1,6.439-5.656A1.746,1.746,0,0,0,596.558,636.933Zm-0.477-1.89c-0.856-.164-1.507.728-2.18,1.23a35.434,35.434,0,0,0-3.981,3.377c-0.523.522-1.669,1.139-1.244,2.036,0.856,0,1.255-.934,1.751-1.442,1.637-1.68,3.841-3.221,5.731-4.819C596.132,635.3,596.107,635.17,596.081,635.043Zm-3.349-14.316c-0.68.017-1.329,0.841-1.955,1.384-0.513.445-1.644,1.063-1,1.787a23.587,23.587,0,0,0,3.145-2.713A0.64,0.64,0,0,0,592.732,620.727Zm-0.1,1.906c-1.2.829-2.671,1.471-3.015,2.886,1.3-.018,2.184-1.679,3.316-2.35A0.651,0.651,0,0,0,592.629,622.633Zm0.382,1.909a4.645,4.645,0,0,0-2.088,1.211c-0.548.438-1.482,1.01-1.206,1.731,1.391-.373,2.39-1.716,3.462-2.579C593.159,624.731,593.026,624.727,593.011,624.542ZM593,626.43a9.6,9.6,0,0,0-2.122,1.516c-0.566.473-1.547,0.958-1.469,1.882,0.7,0.193,1.323-.68,1.9-1.174a13.653,13.653,0,0,0,1.973-1.784C593.3,626.549,593.076,626.6,593,626.43Zm1.546,7.729c-1.286.171-2.268,1.328-3.165,2.122-0.446.394-.949,0.859-1.4,1.272-0.422.388-1.235,0.782-1.058,1.5,1.151-.028,1.97-1.2,2.813-1.952a32.108,32.108,0,0,1,2.642-2.315,2.672,2.672,0,0,1,.241-0.247Zm-1.332-5.688c-0.906.127-1.614,1.108-2.364,1.763-0.692.605-1.909,1.165-1.71,2.129a4.352,4.352,0,0,0,2.143-1.421c0.744-.667,1.425-1.4,2.121-2.013A0.644,0.644,0,0,0,593.214,628.471Zm0.542,4.159c-0.836-.624-2.083,1.046-2.776,1.647-0.851.736-2.489,1.474-2.1,2.6,0.989-.268,1.634-1.287,2.421-1.973,0.831-.727,1.758-1.318,2.493-2.087C593.781,632.757,593.769,632.693,593.756,632.63Zm-0.437-1.7c-0.979-.1-1.839.867-2.609,1.515a5.541,5.541,0,0,0-1.97,2.279c1.006,0.295,1.582-.861,2.236-1.44,0.718-.634,1.557-1.223,2.252-1.839a0.756,0.756,0,0,1,.149-0.228C593.358,631.122,593.338,631.027,593.319,630.931Z" transform="translate(-579.844 -592.5)"/>
</svg>
